<svg width="113" height="31" viewBox="0 0 113 31" fill="none" xmlns="http://www.w3.org/2000/svg">
<path d="M35.697 15.5066H36.6093C37.5032 15.5066 38.1631 15.3576 38.5888 15.0596C39.0145 14.7616 39.2273 14.2933 39.2273 13.6548C39.2273 13.0223 39.0084 12.5723 38.5705 12.3047C38.1387 12.0371 37.4667 11.9033 36.5545 11.9033H35.697V15.5066ZM35.697 17.8054V22.923H32.8691V9.58628H36.7552C38.5675 9.58628 39.9085 9.91772 40.7781 10.5806C41.6478 11.2374 42.0826 12.2378 42.0826 13.5818C42.0826 14.3663 41.8667 15.0657 41.4349 15.6799C41.0031 16.2881 40.3919 16.7655 39.6013 17.1121C41.6082 20.1103 42.9158 22.0472 43.5239 22.923H40.3859L37.2022 17.8054H35.697Z" fill="white"/>
<path d="M57.3076 16.2364C57.3076 18.444 56.7603 20.1407 55.6656 21.3266C54.5709 22.5125 53.0019 23.1054 50.9585 23.1054C48.9151 23.1054 47.3461 22.5125 46.2515 21.3266C45.1568 20.1407 44.6095 18.4379 44.6095 16.2181C44.6095 13.9984 45.1568 12.3047 46.2515 11.1371C47.3522 9.96333 48.9273 9.37646 50.9768 9.37646C53.0262 9.37646 54.5922 9.96637 55.6747 11.1462C56.7633 12.326 57.3076 14.0227 57.3076 16.2364ZM47.5742 16.2364C47.5742 17.7263 47.857 18.8484 48.4225 19.6025C48.9881 20.3566 49.8334 20.7336 50.9585 20.7336C53.2148 20.7336 54.3429 19.2346 54.3429 16.2364C54.3429 13.2321 53.2208 11.73 50.9768 11.73C49.8517 11.73 49.0033 12.1101 48.4317 12.8703C47.86 13.6244 47.5742 14.7464 47.5742 16.2364Z" fill="white"/>
<path d="M67.9441 19.2194C67.9441 20.4235 67.5093 21.3722 66.6396 22.0655C65.7761 22.7588 64.5719 23.1054 63.0272 23.1054C61.6042 23.1054 60.3453 22.8378 59.2506 22.3027V19.6755C60.1507 20.0768 60.9109 20.3596 61.5312 20.5238C62.1576 20.688 62.7292 20.7701 63.2462 20.7701C63.8665 20.7701 64.3408 20.6515 64.6692 20.4144C65.0037 20.1772 65.171 19.8245 65.171 19.3562C65.171 19.0947 65.098 18.8636 64.952 18.6629C64.8061 18.4561 64.5902 18.2585 64.3043 18.07C64.0246 17.8814 63.4499 17.5804 62.5802 17.1669C61.7653 16.7837 61.1541 16.4158 60.7467 16.0631C60.3392 15.7103 60.0139 15.2998 59.7706 14.8316C59.5273 14.3633 59.4057 13.816 59.4057 13.1896C59.4057 12.0097 59.804 11.0823 60.6007 10.4073C61.4035 9.73223 62.5103 9.39471 63.9212 9.39471C64.6145 9.39471 65.2743 9.47681 65.9007 9.64101C66.5332 9.80521 67.1931 10.0363 67.8803 10.3343L66.968 12.5328C66.2565 12.2408 65.6666 12.0371 65.1983 11.9216C64.7361 11.806 64.28 11.7482 63.83 11.7482C63.2948 11.7482 62.8843 11.8729 62.5985 12.1223C62.3127 12.3716 62.1697 12.697 62.1697 13.0983C62.1697 13.3477 62.2275 13.5666 62.3431 13.7551C62.4586 13.9376 62.6411 14.117 62.8904 14.2933C63.1458 14.4636 63.7448 14.7738 64.6875 15.2238C65.9342 15.8198 66.7886 16.4188 67.2508 17.0209C67.713 17.6169 67.9441 18.3497 67.9441 19.2194Z" fill="white"/>
<path d="M75.5064 22.923H72.6786V11.9398H69.057V9.58628H79.128V11.9398H75.5064V22.923Z" fill="white"/>
<path d="M81.3355 9.58628H85.103C86.8727 9.58628 88.1529 9.85082 88.9435 10.3799C89.7341 10.909 90.1294 11.7452 90.1294 12.8885C90.1294 13.6791 89.9074 14.3329 89.4635 14.8498C89.0256 15.3606 88.384 15.6921 87.5387 15.8441V15.9353C89.5638 16.282 90.5764 17.3463 90.5764 19.1281C90.5764 20.3201 90.172 21.2506 89.3631 21.9195C88.5604 22.5885 87.4353 22.923 85.9879 22.923H81.3355V9.58628ZM82.8863 15.2968H85.4406C86.5352 15.2968 87.3228 15.1265 87.8032 14.7859C88.2836 14.4393 88.5239 13.8585 88.5239 13.0436C88.5239 12.2956 88.2563 11.7574 87.7211 11.429C87.1859 11.0945 86.3345 10.9272 85.1669 10.9272H82.8863V15.2968ZM82.8863 16.6104V21.6003H85.6686C86.745 21.6003 87.5539 21.3935 88.0951 20.9799C88.6425 20.5603 88.9161 19.9066 88.9161 19.0187C88.9161 18.1916 88.6364 17.5834 88.0769 17.1942C87.5235 16.805 86.6781 16.6104 85.5409 16.6104H82.8863Z" fill="white"/>
<path d="M100.884 22.923H93.4499V9.58628H100.884V10.9637H95.0006V15.2603H100.529V16.6286H95.0006V21.5364H100.884V22.923Z" fill="white"/>
<path d="M107.954 22.923H106.403V10.9637H102.18V9.58628H112.178V10.9637H107.954V22.923Z" fill="white"/>
<path d="M12.3246 28.2868L4.39325 22.3965L0.282227 24.4219L13.2382 30.8496L26.1941 24.4219L26.0072 24.3392L12.3246 28.2868Z" fill="#033785"/>
<path d="M11.93 22.8925L6.57317 14.6047L2.00537 15.0594L11.8884 25.6L26.277 24.1326L26.1317 23.9672L11.93 22.8925Z" fill="#0051CA"/>
<path d="M13.467 17.7048L11.37 8.05298L6.92676 6.91626L12.4496 20.2263L26.4645 23.8638L26.3814 23.6778L13.467 17.7048Z" fill="#196DEB"/>
<path d="M26.2359 9.29328L14.4219 0.984863L14.8994 15.3903L26.7342 23.678L26.2359 9.29328Z" fill="#009EF7"/>
</svg>
